<?xml version="1.0" encoding="UTF-8"?>
<svg width="203.08mm" height="267.05mm" viewBox="0 0 203.08 267.05106" xmlns="http://www.w3.org/2000/svg" xmlns:xlink="http://www.w3.org/1999/xlink">
<defs>
<mask id="s" fill="#ffffff">
<use width="100%" height="100%" xlink:href="#p"/>
</mask>
<mask id="r" fill="#ffffff">
<use width="100%" height="100%" xlink:href="#k"/>
</mask>
  <filter id="q" x="0" y="0" width="1" height="1.0488">
    <feOffset dx="0" dy="2" in="SourceAlpha" result="shadowOffsetOuter1"/>
    <feColorMatrix in="shadowOffsetOuter1" result="shadowMatrixOuter1"
                   values="0 0 0 0 0   0 0 0 0 0   0 0 0 0 0  0 0 0 0.2 0"/>
    <feMerge>
<feMergeNode in="shadowMatrixOuter1"/>
<feMergeNode in="SourceGraphic"/>
</feMerge>
</filter>
<mask id="o" fill="#ffffff">
<use width="100%" height="100%" xlink:href="#m"/>
</mask>
<mask id="t" fill="#ffffff">
<use width="100%" height="100%" xlink:href="#l"/>
</mask>
<mask id="n" fill="#ffffff">
<path d="m32.808 38.262v4.8654h1.0583c10.521 0 19.05 8.529 19.05 19.05v2.3812h-52.917v-2.3812c0-10.521 8.529-19.05 19.05-19.05h1.0583v-4.8654c-4.5607-2.1666-7.839-6.5945-8.3859-11.835-1.5412-0.21787-2.7266-1.5423-2.7266-3.1436v-3.7042c0-1.5732 1.1442-2.8792 2.6458-3.1311v-1.6314c0-8.183 6.6336-14.817 14.817-14.817s14.817 6.6336 14.817 14.817v1.6314c1.5016 0.25192 2.6458 1.5579 2.6458 3.1311v3.7042c0 1.6013-1.1854 2.9257-2.7266 3.1436-0.54692 5.2403-3.8252 9.6682-8.3859 11.835z" stroke-width=".26458"/>
</mask>
<path id="l" d="m105.19 29.052h-1.1924c-39.765 0-72 32.235-72 72v8.9483h200v-8.9483c0-39.764-32.236-72-72-72h-1.1924c0.12704 0.98359 0.1924 1.9847 0.1924 3 0 13.807-12.088 25-27 25s-27-11.193-27-25c0-1.0153 0.0654-2.0164 0.1924-3z"/>
<path id="m" d="m35.118 15.128c1.0579 9.4917 9.1081 16.872 18.882 16.872 9.8042 0 17.874-7.4259 18.892-16.96 0.08191-0.76731-0.77502-2.0401-1.849-2.0401h-33.956c-1.0802 0-2.0748 1.1784-1.969 2.1281z"/>
<rect id="p" width="264" height="280"/>
<path id="k" d="m180.15 39.92c-2.7598-2.82-5.9641-5.2136-9.0807-7.6139-0.68768-0.52911-1.3864-1.0455-2.0587-1.5947-0.15285-0.12481-1.7185-1.2461-1.9058-1.6588-0.45087-0.99279-0.18965-0.21976-0.12743-1.4045 0.0786-1.4981 3.1334-5.7293 0.85392-6.6996-1.0028-0.42678-2.7916 0.70894-3.7535 1.0841-1.8814 0.73411-3.786 1.3602-5.7309 1.9 0.93186-1.8567 2.7086-5.5736-0.63082-4.5788-2.6016 0.77504-5.0259 2.7677-7.6401 3.7051 0.86495-1.4179 4.3241-5.8115 1.1984-6.0571-0.97266-0.0765-3.803 1.748-4.8503 2.1372-3.1367 1.1659-6.3407 1.9195-9.634 2.513-11.198 2.0181-24.293 1.4427-34.653 6.5409-7.9873 3.9302-15.874 10.029-20.488 17.794-4.4472 7.485-6.1106 15.677-7.0414 24.254-0.683 6.2946-0.73853 12.801-0.4191 19.119 0.10436 2.0698 0.33715 11.611 3.3441 8.7214 1.4981-1.4397 1.4871-7.2532 1.8644-9.221 0.7509-3.9151 1.4737-7.8477 2.7257-11.638 2.2062-6.6788 4.8088-13.793 10.305-18.393 3.5271-2.9515 6.0039-6.9408 9.3791-9.9185 1.5162-1.3374 0.35923-1.1981 2.7969-1.0227 1.6376 0.11777 3.2826 0.16272 4.9235 0.20567 3.796 0.09864 7.598 0.07348 11.395 0.0869 7.6468 0.02751 15.258 0.13555 22.897-0.26472 3.3949-0.17782 6.7992-0.27412 10.185-0.58816 1.8915-0.17548 5.2476-1.3877 6.8046-0.46133 1.4249 0.84751 2.9046 3.6148 3.9278 4.7482 2.4173 2.6784 5.2995 4.7241 8.1261 6.9203 5.8942 4.5795 8.87 10.331 10.66 17.488 1.7834 7.13 1.2834 13.745 3.491 20.762 0.38832 1.2337 1.4155 3.3602 2.6818 1.4541 0.23513-0.35397 0.17426-2.2999 0.17426-3.4196 0-4.5197 1.1446-7.911 1.1302-12.46-0.0562-13.832-0.50339-31.868-10.85-42.439z"/>
</defs>
<g transform="translate(-3.4094 -24.97)">
<g transform="matrix(1.0154 0 0 1.0154 -29.081 7.7084)">
<g transform="matrix(3.7715,0,0,3.7715,32,36.516)">
<mask fill="#ffffff">
<path d="m32.808 38.262v4.8654h1.0583c10.521 0 19.05 8.529 19.05 19.05v2.3812h-52.917v-2.3812c0-10.521 8.529-19.05 19.05-19.05h1.0583v-4.8654c-4.5607-2.1666-7.839-6.5945-8.3859-11.835-1.5412-0.21787-2.7266-1.5423-2.7266-3.1436v-3.7042c0-1.5732 1.1442-2.8792 2.6458-3.1311v-1.6314c0-8.183 6.6336-14.817 14.817-14.817s14.817 6.6336 14.817 14.817v1.6314c1.5016 0.25192 2.6458 1.5579 2.6458 3.1311v3.7042c0 1.6013-1.1854 2.9257-2.7266 3.1436-0.54692 5.2403-3.8252 9.6682-8.3859 11.835z" stroke-width=".26458"/>
</mask>
<path d="m32.808 38.262v4.8654h1.0583c10.521 0 19.05 8.529 19.05 19.05v2.3812h-52.917v-2.3812c0-10.521 8.529-19.05 19.05-19.05h1.0583v-4.8654c-4.5607-2.1666-7.839-6.5945-8.3859-11.835-1.5412-0.21787-2.7266-1.5423-2.7266-3.1436v-3.7042c0-1.5732 1.1442-2.8792 2.6458-3.1311v-1.6314c0-8.183 6.6336-14.817 14.817-14.817s14.817 6.6336 14.817 14.817v1.6314c1.5016 0.25192 2.6458 1.5579 2.6458 3.1311v3.7042c0 1.6013-1.1854 2.9257-2.7266 3.1436-0.54692 5.2403-3.8252 9.6682-8.3859 11.835z" fill="#d0c6ac" stroke-width=".26458"/>
<g fill="#ffdbb4" mask="url(#n)">
<g transform="translate(-32)">
<rect width="264" height="244"/>
</g>
</g>
<path d="m156 79v23c0 30.928-25.072 56-56 56s-56-25.072-56-56v-23 15c0 30.928 25.072 56 56 56s56-25.072 56-56z" fill-opacity=".1" mask="url(#n)"/>
</g>
<g transform="translate(0,170)">
<mask fill="#ffffff">
<use width="100%" height="100%" xlink:href="#l"/>
</mask>
<use width="100%" height="100%" fill="#e6e6e6" fill-rule="evenodd" xlink:href="#l"/>
<g fill="#784421" fill-rule="evenodd" mask="url(#t)">
<rect width="264" height="110" fill="#784421"/>
</g>
<path d="m156 22.279c6.1816 4.5557 10 10.826 10 17.748 0 7.2056-4.1374 13.705-10.771 18.299l-5.6497-4.4507-4.5793 0.33139 1-3.1511-0.0778-0.06127c6.1003-3.1425 10.078-8.2952 10.078-14.119zm-48-0.70799c-6.7672 4.6025-11 11.168-11 18.456 0 7.3982 4.3616 14.052 11.308 18.664l6.1122-4.8151 4.5793 0.33139-1-3.1511 0.0778-0.06127c-6.1003-3.1425-10.078-8.2952-10.078-14.119z" fill="#5fbcd3" fill-rule="evenodd"/>
</g>
<g transform="translate(76,82)">
<g transform="translate(2,52)">
<mask fill="#ffffff">
<use width="100%" height="100%" xlink:href="#m"/>
</mask>
<use width="100%" height="100%" fill="#000000" fill-opacity=".7" fill-rule="evenodd" xlink:href="#m"/>
<rect x="39" y="2" width="31" height="16" rx="5" fill="#fff" fill-rule="evenodd" mask="url(#o)"/>
<g fill="#ff4f6d" fill-rule="evenodd" mask="url(#o)">
<g transform="translate(38,24)">
<circle cx="11" cy="11" r="11"/>
<circle cx="21" cy="11" r="11"/>
</g>
</g>
</g>
<g transform="translate(28,40)" fill-opacity=".16">
<path d="m16 8c0 4.4183 5.3726 8 12 8s12-3.5817 12-8"/>
</g>
<g transform="translate(0,8)" fill-opacity=".7">
<circle cx="30" cy="22" r="6"/>
<circle cx="82" cy="22" r="6"/>
</g>
<g fill-opacity=".6">
<path d="m15.591 14.162c4.496-6.3264 14.012-9.5085 23.756-6.3662 1.0513 0.33901 2.1783-0.23839 2.5173-1.2897 0.339-1.0513-0.23839-2.1783-1.2897-2.5173-11.408-3.6789-22.739 0.11007-28.244 7.856-0.63986 0.90036-0.42869 2.149 0.47167 2.7888 0.90036 0.63986 2.149 0.42869 2.7888-0.47167z"/>
<path transform="matrix(-1,0,0,1,170.02,0)" d="m73.638 21.158c3.9149-5.5087 14.648-8.5977 23.893-6.3274 1.0727 0.26342 2.1558-0.39262 2.4193-1.4653 0.26342-1.0727-0.39262-2.1558-1.4653-2.4193-10.737-2.6366-23.165 0.9404-28.107 7.8948-0.63986 0.90036-0.42869 2.149 0.47167 2.7888 0.90036 0.63986 2.149 0.42869 2.7888-0.47167z"/>
</g>
</g>
<g fill-rule="evenodd">
<mask fill="#ffffff">
<use width="100%" height="100%" xlink:href="#p"/>
</mask>
<g mask="url(#s)">
<g transform="translate(-1)">
<mask fill="#ffffff">
<use width="100%" height="100%" xlink:href="#k"/>
</mask>
<use width="100%" height="100%" fill="#1f3140" fill-rule="evenodd" xlink:href="#k"/>
<g mask="url(#r)">
<rect width="264" height="280"/>
</g>
<g transform="translate(62,85)" fill="none">
<g transform="translate(6,7)" fill="#252c2f" fill-rule="nonzero" filter="url(#q)">
<path d="m34 41h-2.7578c-13.927 0-22.242-7.6641-22.242-20.5 0-10.373 1.817-20.5 23.53-20.5h2.9401c21.713 0 23.53 10.127 23.53 20.5 0 12.069-10.279 20.5-25 20.5zm-1.6146-35c-19.385 0-19.385 6.841-19.385 15.502 0 7.0704 3.1163 15.498 17.971 15.498h3.0291c12.365 0 21-6.373 21-15.498 0-8.6605 0-15.502-19.385-15.502z"/>
<path d="m96 41h-2.7578c-13.927 0-22.242-7.6641-22.242-20.5 0-10.373 1.817-20.5 23.53-20.5h2.9401c21.713 0 23.53 10.127 23.53 20.5 0 12.069-10.279 20.5-25 20.5zm-1.6146-35c-19.385 0-19.385 6.841-19.385 15.502 0 7.0704 3.1195 15.498 17.971 15.498h3.0291c12.365 0 21-6.373 21-15.498 0-8.6605 0-15.502-19.385-15.502z"/>
<path d="m2.9545 5.7716c0.69136-0.67527 8.255-5.7716 29.545-5.7716 17.851 0 21.63 1.8527 27.35 4.6519l0.4187 0.20663c0.39768 0.14051 2.4313 0.83132 4.8101 0.90729 2.1672-0.09301 4.021-0.68039 4.5626-0.8686 6.5287-3.1751 12.919-4.8972 27.858-4.8972 21.29 0 28.854 5.0963 29.545 5.7716 1.6339 0 2.9545 1.2899 2.9545 2.8858v2.8858c0 1.5958-1.3207 2.8858-2.9545 2.8858 0 0-6.9015 0-6.9015 2.8858s-1.9622-4.1757-1.9622-5.7716v-2.8107c-3.6032-1.379-10.053-3.9462-20.682-3.9462-11.842 0-17.739 2.0999-22.798 4.1849l0.05657 0.1364-0.0025 1.9862-2.2172 5.3499-2.7387-1.0828c-0.24459-0.09671-0.77235-0.27044-1.5041-0.45093-2.0401-0.50316-4.1374-0.65634-5.9923-0.2756-0.68049 0.13968-1.3119 0.3493-1.8913 0.63242l-2.6423 1.2911-2.6438-5.1617 0.11742-2.2944 0.08073-0.19492c-4.3628-2.033-8.3856-4.1207-22.825-4.1207-10.628 0-17.078 2.5663-20.682 3.9453v2.8117c0 1.5958-2.9545 8.6573-2.9545 5.7716s-5.9091-2.8858-5.9091-2.8858c-1.6309 0-2.9545-1.2899-2.9545-2.8858v-2.8858c0-1.5958 1.3236-2.8858 2.9545-2.8858z"/>
</g>
</g>
</g>
</g>
</g>
</g>
</g>
</svg>
