<svg xmlns="http://www.w3.org/2000/svg" x="0px" y="0px"
     viewBox="0 0 134.4 185" style="width: 200px">
  <style type="text/css">
    .st0{fill:#ED1C24;}
    .st1{fill:#FFFFFF;}
    .st2{fill:#D9D9D9;}
    .st3{fill:#CA181F;}
    .st4{opacity:0.84;fill:#010000;}
  </style>
  <g id="_x23_ed1c24ff">
    <path class="st0" d="M51.6,2.8C52.7,1.9,53.8,0.9,55,0c8.4,13.9,17.2,27.7,25.2,41.8c0.9,15.9,0.7,31.9,1.7,47.8
		C71.3,77.5,63.1,63.5,53.1,51c0-0.4-0.1-1-0.1-1.4C52.8,34.1,51.9,18.4,51.6,2.8z"/>
    <path class="st0" d="M109.6,90.4c8.9,12.9,16.4,26.8,24.8,40c-4.8,3.5-9.8,6.7-14.7,10.1c-0.5,0.3-1.4,0.9-1.9,1.3
		c-2.3,1.5-4.6,3.1-6.9,4.6c-0.2-6.5-0.2-12.9-0.4-19.4C110.2,114.8,109.5,102.6,109.6,90.4z"/>
  </g>
  <g id="_x23_ffffffff">
    <path class="st1" d="M30.4,19c7.1-5.4,14.2-10.9,21.3-16.3C52,18.3,52.9,34,53.1,49.6C44.8,40,38.1,29.1,30.4,19z"/>
    <path class="st1" d="M81.9,89.6c-1-15.9-0.8-31.9-1.7-47.8c9.9,16.1,20.2,32.2,29.4,48.7c-0.1,12.2,0.6,24.4,0.9,36.6
		c-0.1,0.6-0.4,1.7-0.5,2.3c-9.8-12.4-18.3-25.8-28.1-38.3C81.9,90.6,81.9,89.9,81.9,89.6z"/>
  </g>
  <g id="_x23_d9d9d9ff">
    <path class="st2" d="M24.9,23.1c1.8-1.4,3.6-2.8,5.5-4.1c7.7,10.1,14.4,21,22.7,30.6c0,0.3,0.1,1,0.1,1.4c0.7,16.5,1,33,1.6,49.4
		c-9.6-10.3-19.4-20.3-28.7-30.9C26.1,54.1,24.8,38.6,24.9,23.1z"/>
    <path class="st2" d="M82,91c9.8,12.4,18.3,25.8,28.1,38.3c0.1-0.6,0.4-1.7,0.5-2.3c0.3,6.5,0.3,12.9,0.4,19.4
		c-2.7,1.8-5.4,3.7-8.2,5.5c-6.7-7-13.3-14.2-19.9-21.3C83.1,117.4,81.8,104.2,82,91z"/>
  </g>
  <g id="_x23_ca181fff">
    <path class="st3" d="M0,42.1c8.2-6.4,16.5-12.7,24.9-19c-0.1,15.5,1.2,31,1.1,46.4C17,60.8,8.7,51.3,0,42.1z"/>
    <path class="st3" d="M53.1,51c10.1,12.5,18.2,26.5,28.8,38.6c0,0.4,0,1.1,0,1.5c-0.2,13.2,1.1,26.3,0.9,39.5
		c-9.5-9.9-18.9-20-28.2-30.1C54.1,84,53.8,67.5,53.1,51z"/>
  </g>
  <g id="_x23_010000d6">
    <path class="st4" d="M117.9,141.8c0.5-0.3,1.4-1,1.9-1.3c6.2,5.2,11.6,12.3,11.7,20.7c0.1,8.8-3.6,18-10.3,23.8
		c5.2-7.9,10.6-17.2,8.1-27.1C127.8,151.2,122.6,146.3,117.9,141.8z"/>
  </g>
</svg>
