<svg xmlns="http://www.w3.org/2000/svg" x="0px" y="0px"
	 viewBox="0 0 500.3 240.1">
<style type="text/css">
	.st0{fill:#FA0000;}
	.st1{fill:#FA9901;}
	.st2{fill:#FAE926;}
	.st3{fill:#7DD73D;}
	.st4{fill:#2AAEE3;}
	.st5{fill:#2B3099;}
	.st6{fill:#902295;}
</style>
<g id="_x23_fa0000ff">
	<path class="st0" d="M236,0.5c66.5-4.4,134.3,21.6,181,69.3c45,44.5,70.5,107.3,70.7,170.4h-4.3c0.5-63.9-26.8-127.3-73.1-171.3
		C364.8,24.8,300.5,0.6,237.1,4.5c-60.3,2.9-118.6,31.3-158.9,76c-39.4,43-62,101.3-61.8,159.7h-4.1c-0.3-62.4,25-124.6,69-169
		C121.7,29.5,177.9,3.6,236,0.5z"/>
</g>
<g id="_x23_fa9901ff">
	<path class="st1" d="M237.1,4.5c63.4-4,127.7,20.2,173.2,64.4c46.3,44,73.5,107.4,73.1,171.3h-3.6c0.4-65.9-29-131.2-78.5-174.7
		c-45-40.4-106.7-61.8-167.1-57.1c-60.5,3.7-118.7,33.5-157.9,79.7c-36,41.8-56.7,96.8-56.1,152.1h-3.8
		c-0.2-58.4,22.4-116.7,61.8-159.7C118.5,35.8,176.8,7.5,237.1,4.5z"/>
</g>
<g id="_x23_fae926ff">
	<path class="st2" d="M234.1,8.4c60.4-4.7,122.1,16.7,167.2,57.1c49.5,43.5,78.8,108.8,78.5,174.7h-4.9
		c0.1-60.7-25.1-121.1-68.9-163.3c-49.4-49.4-123.1-72.8-192-61C155.3,25,101.5,59.4,67.3,107.8C39.9,146,25,193.1,25,240.2h-4.8
		c-0.7-55.3,20-110.3,56.1-152.1C115.5,42,173.6,12.1,234.1,8.4z"/>
</g>
<g id="_x23_7dd73dff">
	<path class="st3" d="M214,15.9c69-11.8,142.6,11.6,192,61c43.7,42.2,68.9,102.6,68.8,163.3H470c1.2-91.8-60.4-180.2-147.3-210
		c-65-23.4-140.7-13.4-197,26.5C66.4,97.4,29.2,168.2,29.9,240.2h-4.8C25,193.1,40,146,67.4,107.6C101.5,59.3,155.4,25,214,15.9z"/>
</g>
<g id="_x23_2aaee3ff">
	<path class="st4" d="M125.7,56.7c56.3-39.9,132-49.8,196.9-26.5c86.9,29.8,148.6,118.3,147.3,210h-3c0.8-92-61.9-180.5-149.9-208.1
		c-67.8-22.7-146.4-8.4-201.6,37.1c-51.3,40.8-81.8,105.6-81.8,171h-3.7C29.1,168.2,66.4,97.4,125.7,56.7z"/>
</g>
<g id="_x23_2b3099ff">
	<path class="st5" d="M115.4,69.2C170.6,23.7,249.2,9.4,317,32.1c88.1,27.7,150.7,116.2,149.9,208.1h-3.8
		c0.6-91-61.8-178.5-149.2-205c-40.1-12.7-83.9-12.9-124.1-0.8C101.3,60,36.8,148.2,38.4,240.2h-4.8
		C33.6,174.8,64.1,110.1,115.4,69.2z"/>
</g>
<g id="_x23_902295ff">
	<path class="st6" d="M189.7,34.4c40.2-12.2,84.1-12,124.1,0.8c87.4,26.6,149.8,114.1,149.2,205h-4.9
		c0.9-91.3-63.5-178.7-151.9-202.3c-38.8-11-80.8-10.2-119,2.3C102.6,66.7,41.8,151.8,43,240.2h-4.7C36.7,148.3,101.2,60,189.7,34.4
		z"/>
</g>
</svg>
