<svg width="600pt" height="600pt" viewBox="0 0 600 600" xmlns="http://www.w3.org/2000/svg">
<g id="#000000ff">
</g>
<g id="#ffffffff">
<path fill="#ffffff" opacity="1.00" d=" M 219.39 73.49 C 249.61 68.92 282.17 80.56 301.55 104.48 C 306.89 111.81 318.55 112.39 324.59 105.63 C 346.32 84.49 379.40 75.26 408.60 84.41 C 448.28 93.36 477.57 133.57 475.28 173.96 C 474.77 179.13 475.41 184.88 479.36 188.65 C 485.44 194.92 495.02 192.78 502.65 195.44 C 530.14 201.74 553.07 222.40 563.67 248.33 C 577.72 280.05 569.80 319.87 545.16 344.18 C 541.81 347.39 538.28 351.06 537.90 355.95 C 536.79 363.24 542.49 368.85 544.82 375.26 C 557.90 403.51 552.87 438.07 535.18 463.17 C 524.48 478.16 508.74 489.12 491.57 495.49 C 465.08 505.34 433.87 500.53 411.18 483.81 C 406.85 480.83 400.96 479.76 396.10 482.10 C 390.60 484.40 388.13 490.21 384.42 494.47 C 370.82 511.53 350.50 522.62 329.12 526.32 C 294.01 532.12 255.88 514.81 238.80 483.22 C 235.59 477.20 233.00 469.46 225.68 467.41 C 217.58 464.53 210.75 470.94 203.59 473.50 C 176.22 485.39 143.37 480.58 118.97 464.07 C 102.48 452.78 90.62 435.48 84.33 416.66 C 77.22 395.61 79.66 372.05 89.10 352.13 C 92.55 344.58 88.30 335.25 80.66 332.35 C 47.56 317.34 26.36 280.16 29.79 244.07 C 31.63 226.21 38.10 208.54 49.69 194.66 C 67.95 173.01 96.55 159.76 125.05 162.32 C 130.41 163.06 136.49 162.58 140.45 158.45 C 144.71 154.67 145.03 148.72 145.69 143.47 C 152.08 107.44 183.87 79.34 219.39 73.49 Z" />
</g>
</svg>
