<svg
  id="svg2"
  xmlns="http://www.w3.org/2000/svg" x="0px" y="0px" viewBox="0 0 279.9 279.9">
  <style type="text/css">
    .st0 {
      fill: #ffd741;
    }
  </style>
  <g id="layer1">
    <g id="g3199" transform="matrix(0.1406537,0,0,0.1406537,265.24368,178.4991)">
      <path id="rect2160" class="st0" d="M-832.4,719.5
			c-0.1,0.8-0.4,1.5-0.5,1.5H-949c-0.2,0-0.2-0.7,0-1.5l59.8-993.5L-832.4,719.5z"/>
      <path id="path3137" class="st0" d="M-949.2-1267.6
			c0.1-0.8,0.4-1.5,0.5-1.5h116.1c0.2,0,0.2,0.7,0,1.5l-59.8,993.5L-949.2-1267.6z"/>
      <path id="path3139" class="st0" d="M102.7-332.5
			c0.8,0.1,1.5,0.4,1.5,0.5v116.1c0,0.2-0.7,0.2-1.5,0l-993.5-59.8L102.7-332.5z"/>
      <path id="path3141" class="st0" d="M-1884.3-215.7
			c-0.8-0.1-1.5-0.4-1.5-0.5v-116.1c0-0.2,0.7-0.2,1.5,0l993.5,59.8L-1884.3-215.7z"/>

      <path id="path3143" class="st0" d="
			M-147,387.2c0.5,0.7,0.8,1.3,0.6,1.4l-82.1,82.1c-0.1,0.1-0.6-0.3-1.1-1l-660.2-744.8L-147,387.2z"/>

      <path id="path3145" class="st0" d="
			M-1634.6-935.3c-0.5-0.7-0.8-1.3-0.6-1.4l82.1-82.1c0.1-0.1,0.6,0.3,1.1,1L-891.9-273L-1634.6-935.3z"/>

      <path id="path3147" class="st0" d="
			M-229.5-1017.9c0.7-0.5,1.3-0.8,1.4-0.6l82.1,82.1c0.1,0.1-0.3,0.6-1,1.1l-744.8,660.2L-229.5-1017.9z"/>

      <path id="path3149" class="st0" d="
			M-1552,469.8c-0.7,0.5-1.3,0.8-1.4,0.6l-82.1-82.1c-0.1-0.1,0.3-0.6,1-1.1L-889.7-273L-1552,469.8z"/>

      <path id="path3151" class="st0" d="
			M-343.5,557.2c0.3,0.8,0.4,1.5,0.3,1.5l-100.5,58c-0.1,0.1-0.5-0.5-0.8-1.2l-445-890.3L-343.5,557.2z"/>

      <path id="path3153" class="st0" d="
			M-1438.1-1105.3c-0.3-0.8-0.4-1.5-0.3-1.5l100.5-58c0.1-0.1,0.5,0.5,0.8,1.2l445,890.3L-1438.1-1105.3z"/>

      <path id="path3155" class="st0" d="
			M-59.6-821.4c0.8-0.3,1.5-0.4,1.5-0.3L0-721.1c0.1,0.1-0.5,0.5-1.2,0.8l-890.3,445L-59.6-821.4z"/>

      <path id="path3157" class="st0" d="
			M-1722,273.3c-0.8,0.3-1.5,0.4-1.5,0.3l-58-100.5c-0.1-0.1,0.5-0.5,1.2-0.8l890.3-445L-1722,273.3z"/>

      <path id="path3159" class="st0" d="
			M84-73.3c0.7,0.3,1.3,0.7,1.3,0.9l-30,112.1c0,0.2-0.7,0-1.4-0.3l-944.2-314.9L84-73.3z"/>

      <path id="path3161" class="st0" d="
			M-1865.6-474.8c-0.7-0.3-1.3-0.7-1.3-0.9l30-112.1c0-0.2,0.7,0,1.4,0.3l944.2,314.9L-1865.6-474.8z"/>

      <path id="path3163" class="st0" d="
			M-690-1248.9c0.3-0.7,0.7-1.3,0.9-1.3l112.1,30c0.2,0,0,0.7-0.3,1.4l-314.9,944.2L-690-1248.9z"/>

      <path id="path3165" class="st0" d="
			M-1091.5,700.7c-0.3,0.7-0.7,1.3-0.9,1.3l-112.1-30c-0.2,0,0-0.7,0.3-1.4l314.9-944.2L-1091.5,700.7z"/>

      <path id="path3167" class="st0" d="
			M-577.2,670.5c0.1,0.8,0,1.5-0.1,1.5l-112.1,30c-0.2,0-0.3-0.6-0.4-1.4l-199.4-975.2L-577.2,670.5z"/>

      <path id="path3169" class="st0" d="
			M-1204.3-1218.6c-0.1-0.8,0-1.5,0.1-1.5l112.1-30c0.2,0,0.3,0.6,0.4,1.4l199.4,975.2L-1204.3-1218.6z"/>

      <path id="path3171" class="st0" d="
			M53.8-587.6c0.8-0.1,1.5,0,1.5,0.1l30,112.1c0,0.2-0.6,0.3-1.4,0.4l-975.2,199.4L53.8-587.6z"/>

      <path id="path3173" class="st0" d="
			M-1835.4,39.5c-0.8,0.1-1.5,0-1.5-0.1l-30-112.1c0-0.2,0.6-0.3,1.4-0.4l975.2-199.4L-1835.4,39.5z"/>

      <path id="path3175" class="st0" d="
			M-1.2,172.1c0.6,0.5,1.1,1.1,1,1.2l-58,100.5c-0.1,0.1-0.7-0.2-1.3-0.7L-890-275.4L-1.2,172.1z"/>

      <path id="path3177" class="st0" d="
			M-1780.4-720.3c-0.6-0.5-1.1-1.1-1-1.2l58-100.5c0.1-0.1,0.7,0.2,1.3,0.7l830.5,548.6L-1780.4-720.3z"/>

      <path id="path3179" class="st0" d="
			M-444.6-1163.7c0.5-0.6,1.1-1.1,1.2-1l100.5,58c0.1,0.1-0.2,0.7-0.7,1.3l-548.6,830.5L-444.6-1163.7z"/>

      <path id="path3181" class="st0" d="
			M-1337,615.6c-0.5,0.6-1.1,1.1-1.2,1l-100.5-58c-0.1-0.1,0.2-0.7,0.7-1.3l548.6-830.5L-1337,615.6z"/>

      <path id="path3183" class="st0" d="
			M-147,387.2c0.5,0.7,0.8,1.3,0.6,1.4l-82.1,82.1c-0.1,0.1-0.6-0.3-1.1-1l-660.2-744.8L-147,387.2z"/>

      <path id="path3185" class="st0" d="
			M-1634.6-935.3c-0.5-0.7-0.8-1.3-0.6-1.4l82.1-82.1c0.1-0.1,0.6,0.3,1.1,1L-891.9-273L-1634.6-935.3z"/>

      <path id="path3187" class="st0" d="
			M-229.5-1017.9c0.7-0.5,1.3-0.8,1.4-0.6l82.1,82.1c0.1,0.1-0.3,0.6-1,1.1l-744.8,660.2L-229.5-1017.9z"/>

      <path id="path3189" class="st0" d="
			M-1552,469.8c-0.7,0.5-1.3,0.8-1.4,0.6l-82.1-82.1c-0.1-0.1,0.3-0.6,1-1.1L-889.7-273L-1552,469.8z"/>
      <path id="path3191" class="st0" d="M102.7-332.5
			c0.8,0.1,1.5,0.4,1.5,0.5l0,116.1c0,0.2-0.7,0.2-1.5,0l-993.5-59.8L102.7-332.5z"/>

      <path id="path3193" class="st0" d="
			M-1884.3-215.7c-0.8-0.1-1.5-0.4-1.5-0.5v-116.1c0-0.2,0.7-0.2,1.5,0l993.5,59.8L-1884.3-215.7z"/>
      <path id="path3195" class="st0" d="M-949.2-1267.6
			c0.1-0.8,0.4-1.5,0.5-1.5h116.1c0.2,0,0.2,0.7,0,1.5l-59.8,993.5L-949.2-1267.6z"/>

      <path id="path3197" class="st0" d="
			M-832.4,719.5c-0.1,0.8-0.4,1.5-0.5,1.5l-116.1,0c-0.2,0-0.2-0.7,0-1.5l59.8-993.5L-832.4,719.5z"/>
    </g>
  </g>
</svg>
