<svg id="Layer_1" xmlns="http://www.w3.org/2000/svg" x="0px" y="0px"
	 viewBox="0 0 412.5 388.2">
<style type="text/css">
	.st0{fill:#FFCA08;}
	.st1{fill:#E79C9C;}
</style>
<g id="_x23_ffca08ff">
	<path class="st0" d="M211.2,0C269.8-0.6,328.6,26,365.3,72c23.4,23.1,40,53.4,44.9,86.1c9.2,55.8-9.8,114-46.3,156.6
		c-39.4,46-99.1,75.5-160.1,73.4c-64.1,1.8-128.2-29.7-165.7-81.9C10.6,269-3.9,221.7,0.9,175.5c3.1-33.2,18.9-64.2,41-88.8
		C81.5,34.5,145.1,0,211.2,0 M255.1,147c-9.6,4.8-9.8,19.3-8.6,28.7c2.3,12,21.3,11.1,22.1-1.3C269.3,164.7,270.1,144.1,255.1,147
		 M134.1,149.8c-10,7.5-10.7,24.1-6.7,35.1c5.7,11.8,24.5,5.3,22.8-7.3C149.8,167.5,149.1,146.4,134.1,149.8 M280.1,199
		c-9.5,0.1-24.7,7.6-17.8,19c11.1,8.8,29.1,7,40.6-0.2C312.2,204.3,290.8,196.2,280.1,199 M98.1,209.1c-6.4,1.4-15.9-0.4-18.6,7.3
		c-2.5,8.3,6.3,14.6,13.6,15.6c11.4,2.3,27.6,3.7,34.9-7.2C131.1,208.8,109.4,206.3,98.1,209.1 M177.3,219.3
		c4.4,8.8,12,19.5,23.3,17.3c8.9-1.5,12.6-10.3,17.7-16.5c5.4-3.3-3.1-10.1-6.9-7c-0.4,7.8-6.5,16.4-14.7,17.1
		c-8.3-1.8-14.4-9.8-16.4-17.8C174.3,210.4,168.6,219.6,177.3,219.3z"/>
</g>
<g id="_x23_000000ff">
	<path d="M255.1,147c14.9-2.9,14.2,17.7,13.5,27.4c-0.8,12.4-19.7,13.3-22.1,1.3C245.3,166.3,245.5,151.8,255.1,147 M261.1,170.9
		c-4,0.9-2.5,7.2,1.4,6.3C266.6,176.7,265.1,169.6,261.1,170.9z"/>
	<path d="M134.1,149.8c15-3.4,15.7,17.7,16,27.8c1.7,12.7-17.1,19.2-22.8,7.3C123.4,173.9,124.1,157.3,134.1,149.8 M141,174.5
		c-3.2,1.7-1.1,7.5,2.6,6C148,179.3,145.2,172.1,141,174.5z"/>
	<path d="M177.3,219.3c-8.7,0.3-3-8.9,3.1-6.9c2,8,8.1,15.9,16.4,17.8c8.1-0.7,14.3-9.3,14.7-17.1c3.8-3,12.3,3.8,6.9,7
		c-5.1,6.2-8.8,14.9-17.7,16.5C189.3,238.8,181.7,228.1,177.3,219.3z"/>
</g>
<g id="_x23_e79c9cff">
	<path class="st1" d="M261.1,170.9c4.1-1.3,5.6,5.8,1.4,6.3C258.6,178.1,257.1,171.8,261.1,170.9z"/>
	<path class="st1" d="M141,174.5c4.2-2.4,7,4.8,2.6,6C139.8,182,137.7,176.2,141,174.5z"/>
	<path class="st1" d="M280.1,199c10.7-2.9,32.1,5.3,22.9,18.8c-11.5,7.3-29.6,9-40.6,0.2C255.5,206.6,270.6,199.1,280.1,199z"/>
	<path class="st1" d="M98.1,209.1c11.3-2.8,33-0.3,29.9,15.8c-7.3,10.8-23.5,9.5-34.9,7.2c-7.3-1-16.1-7.3-13.6-15.6
		C82.2,208.6,91.7,210.5,98.1,209.1z"/>
</g>
</svg>
