<svg id="Layer_1" xmlns="http://www.w3.org/2000/svg" x="0px" y="0px"
	 viewBox="0 0 219.7 551.8">
<style type="text/css">
	.st0{fill:#E3BE3A;}
	.st1{fill:#EDCD52;}
	.st2{fill:#FEFDFC;}
	.st3{fill:#FEFCFD;}
	.st4{fill:#EAB650;}
	.st5{fill:#DC9B39;}
	.st6{fill:#E9B64E;}
	.st7{fill:#DD9C36;}
	.st8{fill:#E8B54E;}
	.st9{fill:#E9B64F;}
	.st10{fill:#DE9B38;}
	.st11{fill:#C09843;}
	.st12{fill:#FDFDFB;}
</style>
<g id="_x23_ffffffff">
</g>
<g id="_x23_e3be3aff">
	<path class="st0" d="M112.3,538.1c7,2.1,5.2,13.7-2.1,13.5c-16.6,0.2-33.2,0.2-49.8,0c-6.9,0-8.6-10.2-2.9-13.4
		c3.5,3.1,6.3,7.6,11.3,8.3c7.1,1.2,14.6,1.3,21.5-0.6c4.3-1.1,8.1-5.9,5.5-10.2c-3.3-2.9-7.6-4.5-11.3-6.8
		c-0.3-52.3-0.1-104.6-0.1-156.9c6.3,0,12.5-0.1,18.8,0c-0.6,6.2-0.7,12.5-1,18.7c-1.2,12.9,0.3,25.8-0.5,38.8
		c-0.7,11.2-1.7,22.4-1,33.6c0.1,20.9-1.1,41.9-1,62.8C99.9,532.8,106.4,536.5,112.3,538.1z"/>
	<path class="st0" d="M105.2,244.5c-6.9,0.4-13.9,0.6-20.8,0.1C84.1,163.3,84.8,82.1,84,0.8c28.5-0.1,57.1-1,85.6,0.5
		c-29.4,26.3-45.6,64-54.1,101.8c-4.8,20.6-6.9,41.6-8.5,62.6c-0.2,5.2,0.2,10.4-0.1,15.6c-0.5,5.6-0.7,11.3,1.3,16.7
		c-3,5.1-1.9,11.3-2.1,17C105.7,224.8,105.9,234.7,105.2,244.5z"/>
</g>
<g id="_x23_edcd52ff">
	<path class="st1" d="M90.3,545.9c-7,1.9-14.4,1.8-21.5,0.6c-5-0.7-7.8-5.2-11.3-8.3c8.1-1.4,15.4-9.2,14.4-17.7
		c-1.2-49.5-1.7-99-3.4-148.5C73.7,372,79,372,84.3,372c0,52.3-0.2,104.6,0.1,156.9c3.7,2.3,8,3.9,11.3,6.8
		C98.4,540,94.6,544.8,90.3,545.9 M78.4,525.7c1.3-20.7,0.5-41.6,0.4-62.4c-1.7-0.1-3.3-0.2-5-0.3c0.2,20.9-0.9,41.8,0.6,62.6
		C75.7,525.7,77,525.7,78.4,525.7 M78.9,442.2c0-3-3.2-1.9-5-1.8c0.1,5.4-2.2,12.2,2.4,16.3C80.5,453,78.9,447,78.9,442.2z"/>
	<path class="st1" d="M102,440.9c-1.9,7.3-0.5,14.8-1.4,22.2c-0.7-11.2,0.3-22.4,1-33.6c1.9,0.6,3.9,1.4,5.6,2.5
		c20.9,16.1,52.3,17.7,74.6,3.4c19.7-11.4,32.1-33.8,32.5-56.4c-0.1-48-0.1-96.1,0-144.1c0-9.5-2.8-18.8-6.4-27.5
		c-12.6-26.8-44.7-43.5-73.8-36.7c-9.9,1.3-18.3,6.8-27.2,10.7c0.3-5.2-0.1-10.4,0.1-15.6c0.4,1.2,0.8,2.3,1.1,3.5
		c12.2-7.9,26.8-12,41.3-11.4c31.3,0.3,60.4,23.7,68,54c3.2,11.1,2.2,22.7,2.4,34c0,42.3,0,84.7,0,127c0,6.5,0.3,13-0.6,19.5
		c-2.1,22.3-15.8,43.1-35.2,54.1C159,461.9,124.6,459.5,102,440.9z"/>
	<path class="st1" d="M84.3,244.6c-6.3-0.2-12.5,0.1-18.8,0.2c0.8-22.9-0.8-45.8-0.9-68.8C63.4,132.3,56.3,87.9,37,48.3
		C28,30,15.6,13.4,0,0.3c57.2,0,114.5-0.7,171.7,0.2c-0.7,0.3-1.4,0.6-2.1,0.8C141.1-0.1,112.5,0.8,84,0.8
		C84.8,82.1,84.1,163.3,84.3,244.6 M69.6,94.3c1.6-6-0.5-12-1.8-17.9C62.8,54.1,52.7,33.3,39.1,15c6.7-0.7,13.5,0.1,20.1-1
		c0-2,0-4.1,0-6.1c-9.8-1.2-19.8-0.6-29.6-0.6c-3.7,0-3.9,5-1.5,6.9C46.8,35.5,58.3,62.5,63,90.3C63,94.1,66.7,94.3,69.6,94.3z"/>
</g>
<g id="_x23_fefdfcff">
	<path class="st2" d="M78.4,525.7c-1.3,0-2.7-0.1-4-0.1c-1.5-20.8-0.4-41.7-0.6-62.6c1.7,0.1,3.3,0.2,5,0.3
		C78.9,484.1,79.6,505,78.4,525.7z"/>
</g>
<g id="_x23_fefcfdff">
	<path class="st3" d="M78.9,442.2c0,4.9,1.6,10.8-2.6,14.4c-4.6-4.1-2.4-10.9-2.4-16.3C75.8,440.3,79,439.2,78.9,442.2z"/>
</g>
<g id="_x23_eab650ff">
	<path class="st4" d="M181.8,435.4c-22.3,14.3-53.6,12.8-74.6-3.4c-1.7-1.1-3.6-1.9-5.6-2.5c0.7-12.9-0.8-25.9,0.5-38.8
		c0,5.3-0.6,10.7,0.5,16c2,5.8,6.6,10.2,10.8,14.5c0.1-0.6,0.2-1.8,0.3-2.4c1.3,6.2,7.8,8.5,12.8,11.1c-0.1-19.1,1.1-38.4-0.7-57.5
		c0.4,0,1.2-0.1,1.7-0.1c-0.9,19.2-0.3,38.5-0.3,57.8c18.9,8.4,42.7,3.6,56.6-11.9c8.7-9.1,13.8-21.6,13.6-34.3
		c0-51.4,0-102.8,0-154.1c-0.1-17.4-9.9-34.3-25.1-42.8c-13.3-8.1-30.5-8.9-44.7-2.9c-0.9,20.1-0.4,40.4-0.2,60.5
		c14.6-0.1,29.3-0.4,43.9,0.2c-0.2,6.9-0.2,13.9,0,20.8c-1.3,0-2.6,0.1-4,0.1c1.1-0.3,2.2-0.5,3.3-0.8c-0.1-3.3-0.1-6.7-0.1-10
		c-37.5,0.2-75.1-0.1-112.6,0.1c-0.1-1.8-0.1-3.6-0.2-5.3c-0.1-1.7-0.1-3.4-0.1-5.1c2.8,0,5.5,0,8.3,0c6.3-0.1,12.5-0.4,18.8-0.2
		c6.9,0.5,13.9,0.4,20.8-0.1c2.8,0,5.6,0.1,8.3,0.3c0.2-0.9,0.3-1.9,0.4-2.8c0.1,0.7,0.1,2.1,0.2,2.8c4.1,0.1,8.2,0.1,12.3,0.1
		c0.2-20,0.6-40.1-0.2-60.1c-4.7,3-12.8,5.1-12.1,12.1c-0.1,14.7,0.2,29.5-0.1,44.2c-0.7-15.7,0.3-31.5-0.6-47.2
		c-1.8,1.4-3.5,2.8-5.2,4.2c-2-5.3-1.8-11.1-1.3-16.7c8.9-3.9,17.3-9.4,27.2-10.7c29.1-6.7,61.1,9.9,73.8,36.7
		c3.6,8.7,6.5,18,6.4,27.5c-0.1,48-0.1,96.1,0,144.1C213.8,401.6,201.5,424,181.8,435.4z"/>
</g>
<g id="_x23_dc9b39ff">
	<path class="st5" d="M126.4,429.9c-5-2.6-11.5-4.9-12.8-11.1c0.8-15.5,0.1-31,0.4-46.5c-3.6-0.1-7.2-0.2-10.8-0.3
		c-6.3-0.1-12.5,0-18.8,0c-5.3,0-10.6,0-15.9,0.1c-3.7,0.1-7.4,0.1-11,0c-0.1-1.7-0.1-3.4-0.2-5.2c-2.8,0-5.6,0.1-8.4,0.3
		c-0.7,4.5-6,7.6-9.3,3.5c-1.6-5.7-1.2-12.1-0.3-17.9c2.4-5.1,9.4-2.1,9.6,2.9c2.8,0.2,5.5,0.3,8.3,0.4c0.2,1.8,0.5,3.6,0.8,5.4
		c37.5-0.7,75-0.4,112.5-0.2c0,3.5-0.1,7-0.2,10.5c-14.2,0.9-28.5-0.1-42.8,0.4c-0.4,0-1.3,0.1-1.7,0.1
		C127.5,391.5,126.3,410.8,126.4,429.9z"/>
</g>
<g id="_x23_fffefeff">
</g>
<g id="_x23_e9b64eff">
	<path class="st6" d="M171.1,371.8l-0.9,0.1c0.1-3.5,0.2-7,0.2-10.5c-37.5-0.3-75-0.5-112.5,0.2c-0.3-1.8-0.6-3.6-0.8-5.4
		c-0.1-1.7,0.2-3.3,0.3-5c3.6-0.1,7.3-0.2,10.9-0.3c0-5-0.1-10-0.1-15c11.7-0.8,23.5,0.9,35.2,0.1c0,5,0,10,0,15c3.4,0,6.7,0,10.1,0
		c0.2-3.7,0.4-7.4,0.5-11.1c0.1,3.8,0.3,7.5,0.4,11.3c4.1,0,8.1-0.2,12.1-0.7c-0.1-5.3-0.1-10.5-0.1-15.8c0.2,0.4,0.6,1.1,0.8,1.5
		c-0.1,4.9-0.3,9.9-0.1,14.8c14.6,0.2,29.3-0.4,43.9,0.3C170.9,358,171.1,364.9,171.1,371.8z"/>
</g>
<g id="_x23_dd9c36ff">
	<path class="st7" d="M126.5,350.3c-4,0.5-8.1,0.8-12.1,0.7c-0.2-3.8-0.4-7.5-0.4-11.3c0-1.2,0-2.4,0.1-3.6
		c-3.5-0.2-7.1-0.3-10.6-0.2c-11.7,0.8-23.5-0.9-35.2-0.1c-3.6,0.1-7.1,0.1-10.7,0c-0.1-1.7-0.2-3.3-0.3-5c-2.6-0.1-5.3-0.2-7.9-0.3
		c-1,4.5-6.8,8.2-10.1,3.5c-1-5.6-0.9-11.6,0-17.3c2.4-5.1,9.4-2.2,9.6,2.8c2.9,0,5.8,0,8.7-0.1c0.1,2,0,4,0,6
		c37.6-0.7,75.2,0,112.9-0.4c0,3.6-0.2,7.2-0.9,10.7c-14.1,0.1-28.2-0.3-42.3,0.2c-0.2-0.4-0.6-1.1-0.8-1.5
		C126.5,339.8,126.5,345.1,126.5,350.3z"/>
	<path class="st7" d="M126.3,314.8c-4,0-8,0-12,0c-0.1-4.6-0.1-9.2,0-13.9l-0.9,0c-3.3-0.1-6.6-0.1-9.9,0
		c-12.1,0.8-24.2-0.9-36.3-0.1c-3.3,0.1-6.6,0.1-9.9,0.1c0-1.7-0.1-3.4-0.1-5c-3.4,0-8-1.5-9.5,2.6c-1.6,4.5-8.2,3.6-8.9-0.9
		c-0.3-5.4-1-11.2,0.6-16.4c3-4.2,9-1.2,9.3,3.4c2.9,0.2,5.8,0.2,8.7,0.3c0.1,1.9,0.1,3.8,0.2,5.6c37.5-1,75-0.2,112.5-0.4
		c0,3.4,0,6.7,0.1,10c-1.1,0.2-2.1,0.5-3.2,0.6c-13.3,0.5-26.6-0.1-39.8,0.3l-0.9,0C126.4,305.6,126.4,310.2,126.3,314.8z"/>
</g>
<g id="_x23_fefefbff">
</g>
<g id="_x23_e8b54eff">
	<path class="st8" d="M171.1,335.8c-0.4,0-1.2,0-1.6,0c0.7-3.5,0.9-7.1,0.9-10.7c-37.6,0.4-75.3-0.3-112.9,0.4c0-2,0-4,0-6
		c0-1.6-0.1-3.1-0.2-4.7c3.4-0.2,6.7-0.2,10.1-0.2c0.2-4.6,0.1-9.2-0.1-13.8c12.1-0.8,24.2,0.9,36.3,0.1c0.6,4.5,0.6,9.1,0.2,13.6
		c3.2,0,6.5,0.1,9.7,0.2c0.3-4.6,0.2-9.2-0.1-13.8l0.9,0c-0.1,4.6,0,9.2,0,13.9c4,0,8-0.1,12,0c0-4.6,0.1-9.1,0-13.7l0.9,0
		c-0.4,4.5-0.4,9.1-0.1,13.7c14.6,0,29.3-0.6,43.8,0.3C170.9,322,171,328.9,171.1,335.8z"/>
</g>
<g id="_x23_fcfdfaff">
</g>
<g id="_x23_e9b64fff">
	<path class="st9" d="M171.1,300.7c-1.3,0-2.6,0-4,0c1.1-0.2,2.1-0.4,3.2-0.6c0-3.4-0.1-6.7-0.1-10c-37.5,0.3-75.1-0.6-112.5,0.4
		c-0.1-1.9-0.1-3.7-0.2-5.6c-0.1-1.7-0.1-3.4-0.2-5c3-0.1,6-0.2,8.9-0.3c0.8-4.5,0.4-9.1,0.1-13.7c12.9-0.9,25.8,0.9,38.8,0.1
		c-0.5,4.5-0.6,9.1-0.5,13.6c3.2,0,6.3-0.1,9.4,0c4,0.3,8,0.3,11.9-0.1c0.6-4.5,0.7-9,0.4-13.5h0.9c-0.3,4.5-0.3,9.1-0.1,13.6
		c14.6-0.1,29.3-0.3,43.9,0.2C170.9,286.8,170.9,293.8,171.1,300.7z"/>
</g>
<g id="_x23_de9b38ff">
	<path class="st10" d="M126,279.6c-4,0.3-7.9,0.4-11.9,0.1c-0.1-4.5-0.1-8.9-0.1-13.4c-2.9-0.1-5.9-0.2-8.8-0.2
		c-12.9,0.8-25.8-1-38.8-0.1c-3,0.1-6,0.2-9,0.1c-0.1-1.8-0.1-3.5-0.2-5.3c-2.6-0.1-5.1,0-7.7,0.1c-1.5,3.9-6.4,7.9-9.9,3.8
		c-1.8-5.6-1.2-12-0.4-17.8c2.4-5.1,9.1-2,9.7,2.8c2.9,0.2,5.8,0.2,8.6,0.3c0.1,1.8,0.1,3.6,0.2,5.3c37.5-0.2,75.1,0,112.6-0.1
		c0,3.3,0.1,6.7,0.1,10c-1.1,0.3-2.2,0.5-3.3,0.8c-13.3,0.6-26.6,0.1-39.8,0.2h-0.9C126.6,270.6,126.5,275.1,126,279.6z"/>
</g>
<g id="_x23_fdfefcff">
</g>
<g id="_x23_c09843ff">
	<path class="st11" d="M126.4,244.9c-4.1,0-8.2-0.1-12.3-0.1c0-0.7-0.1-2.1-0.2-2.8V241c0.4-14.7,0-29.5,0.1-44.2
		c-0.7-7.1,7.4-9.1,12.1-12.1C127,204.8,126.6,224.8,126.4,244.9z"/>
</g>
<g id="_x23_fefdfbff">
</g>
<g id="_x23_fdfdfbff">
	<path class="st12" d="M69.6,94.3c-2.9,0-6.6-0.2-6.6-4c-4.7-27.8-16.1-54.8-34.9-76.1c-2.4-1.9-2.2-6.8,1.5-6.9
		c9.9,0,19.8-0.6,29.6,0.6c0,2,0,4.1,0,6.1c-6.7,1.1-13.4,0.4-20.1,1c13.6,18.3,23.7,39.1,28.8,61.4C69.1,82.3,71.2,88.3,69.6,94.3z
		"/>
</g>
</svg>
